<?xml version="1.0" encoding="UTF-8" standalone="no"?>
<!DOCTYPE svg PUBLIC "-//W3C//DTD SVG 1.1//EN" "http://www.w3.org/Graphics/SVG/1.1/DTD/svg11.dtd">
<svg xmlns="http://www.w3.org/2000/svg" version="1.1" viewBox="0.00 0.00 103.00 104.00">
<g stroke-width="2.00" fill="none" stroke-linecap="butt">
<path stroke="#f4bb28" vector-effect="non-scaling-stroke" d="
  M 65.49 13.97
  Q 56.92 11.75 48.49 9.15
  Q 46.66 8.58 44.00 8.63"
/>
<path stroke="#f39b27" vector-effect="non-scaling-stroke" d="
  M 69.38 31.58
  Q 69.19 31.01 69.69 30.68
  A 0.65 0.62 -12.1 0 0 69.97 30.27
  Q 70.08 29.77 69.70 29.44
  Q 68.56 28.42 68.27 28.35
  Q 64.20 27.46 59.67 26.19"
/>
<path stroke="#f9d793" vector-effect="non-scaling-stroke" d="
  M 59.67 26.19
  Q 59.40 25.01 59.89 23.26
  Q 60.06 22.66 60.66 22.86
  L 62.43 23.48
  A 0.95 0.95 0.0 0 0 63.67 22.76
  Q 63.91 21.54 63.56 20.60
  A 0.85 0.85 0.0 0 0 62.45 20.10
  Q 61.45 20.50 60.42 20.50
  Q 59.83 20.50 59.67 19.94
  Q 59.38 18.91 58.62 18.18
  Q 58.23 17.80 57.68 17.77
  Q 51.53 17.46 49.83 17.82
  Q 47.49 18.31 46.18 21.38"
/>
<path stroke="#f39b27" vector-effect="non-scaling-stroke" d="
  M 46.18 21.38
  L 36.25 18.23
  Q 35.77 18.08 35.33 18.34
  L 32.99 19.72"
/>
<path stroke="#f9c393" vector-effect="non-scaling-stroke" d="
  M 59.67 26.19
  L 60.12 29.24
  Q 60.25 30.11 59.62 29.49
  Q 57.10 26.94 57.49 23.34
  A 0.51 0.50 2.4 0 0 56.97 22.78
  L 55.41 22.81
  Q 54.46 22.83 54.31 23.77
  Q 54.16 24.69 55.07 24.91
  Q 55.77 25.09 55.75 25.81
  L 55.68 28.24
  Q 55.67 28.76 55.99 29.17
  Q 59.92 34.31 61.26 40.34"
/>
<path stroke="#f9c393" vector-effect="non-scaling-stroke" d="
  M 42.89 39.74
  Q 44.29 34.23 47.61 29.88
  C 49.10 27.94 47.72 27.01 48.42 25.47
  Q 48.64 24.98 49.13 24.80
  Q 49.71 24.60 49.74 24.00
  Q 49.77 23.56 49.51 23.24
  Q 49.12 22.75 48.44 22.78
  Q 47.53 22.82 46.68 22.78
  A 0.64 0.63 84.6 0 1 46.09 22.29
  Q 45.99 21.88 46.18 21.38"
/>
<path stroke="#79b44a" vector-effect="non-scaling-stroke" d="
  M 43.26 46.39
  L 38.85 47.28
  A 1.56 1.55 -40.9 0 1 37.97 47.22
  Q 36.99 46.87 36.18 47.46
  Q 35.78 47.75 35.28 47.83
  Q 32.58 48.24 30.04 49.60"
/>
<path stroke="#c2dda5" vector-effect="non-scaling-stroke" d="
  M 30.04 49.60
  L 17.13 42.12
  Q 16.73 41.88 16.53 42.31
  L 15.54 44.50
  Q 15.32 45.00 15.80 45.28
  L 32.04 54.67"
/>
<path stroke="#79b44a" vector-effect="non-scaling-stroke" d="
  M 32.04 54.67
  Q 32.03 55.17 31.89 55.54"
/>
<path stroke="#c2dda5" vector-effect="non-scaling-stroke" d="
  M 31.89 55.54
  L 15.02 45.79
  A 0.58 0.57 34.1 0 0 14.27 45.93
  L 14.10 46.15
  Q 13.39 47.08 14.40 47.67
  L 20.35 51.15
  Q 20.79 51.41 20.99 51.89
  Q 23.13 57.23 19.41 59.75
  Q 17.99 60.71 17.05 62.13
  Q 15.49 64.49 15.62 66.65"
/>
<path stroke="#b7d6a4" vector-effect="non-scaling-stroke" d="
  M 31.89 55.54
  L 36.25 58.03
  A 0.58 0.58 0.0 0 1 36.47 58.81
  L 36.28 59.15
  A 1.04 1.03 29.5 0 1 34.85 59.54
  L 28.72 55.95
  Q 28.22 55.66 27.70 55.90
  C 26.03 56.63 24.18 56.67 23.05 58.28
  Q 21.78 60.10 22.05 61.94
  Q 22.13 62.50 21.85 62.99
  Q 20.43 65.57 18.58 68.19
  Q 18.18 68.76 16.97 67.71"
/>
<path stroke="#b7d6a4" vector-effect="non-scaling-stroke" d="
  M 30.04 49.60
  L 38.34 54.40
  Q 38.94 54.75 38.49 55.28
  L 37.12 56.89
  Q 36.69 57.39 36.13 57.06
  L 32.04 54.67"
/>
<path stroke="#85d1ef" vector-effect="non-scaling-stroke" d="
  M 88.00 36.98
  L 84.66 42.35
  A 2.19 2.18 22.2 0 1 82.31 43.33
  C 74.70 41.56 75.17 52.37 67.68 50.61
  Q 64.56 49.87 67.25 51.61
  Q 69.12 52.82 71.55 52.88
  Q 71.62 52.88 71.63 52.95
  Q 71.65 53.00 71.63 53.04
  Q 71.60 53.11 71.53 53.12
  Q 69.74 53.32 67.97 52.93
  Q 66.41 52.59 67.53 53.73
  C 69.82 56.05 72.87 55.81 75.84 54.97
  Q 76.99 54.64 75.98 55.29
  Q 73.86 56.64 71.28 56.38
  Q 70.70 56.32 70.91 56.86
  Q 71.08 57.29 71.67 57.75"
/>
<path stroke="#119ad7" vector-effect="non-scaling-stroke" d="
  M 71.67 57.75
  L 67.75 56.99
  Q 67.20 56.88 66.96 57.39
  Q 66.84 57.66 66.58 57.76
  Q 65.98 57.99 65.31 57.87
  Q 64.48 57.72 63.94 58.30
  Q 63.58 58.70 63.09 58.49
  Q 62.16 58.08 61.38 58.22"
/>
<path stroke="#8bc8e8" vector-effect="non-scaling-stroke" d="
  M 89.27 38.76
  Q 89.59 39.56 89.26 40.23
  Q 88.37 42.03 87.45 43.72
  A 2.32 2.31 -53.9 0 0 87.88 46.50
  C 90.81 49.30 90.14 54.24 88.29 57.41
  C 85.70 61.86 81.35 62.87 76.80 60.75
  Q 75.22 60.01 76.96 59.91
  Q 79.74 59.73 81.94 57.99
  Q 82.06 57.89 81.97 57.76
  L 81.97 57.75
  Q 81.88 57.62 81.75 57.70
  Q 76.64 60.56 71.67 57.75"
/>
<path stroke="#bc2f82" vector-effect="non-scaling-stroke" d="
  M 74.02 81.51
  Q 73.15 81.27 72.69 81.91
  Q 72.28 82.47 72.11 81.85
  Q 72.09 81.78 72.05 81.69
  Q 71.97 81.45 71.81 81.64
  Q 71.73 81.74 71.69 81.86
  Q 71.67 81.92 71.61 81.92
  Q 66.39 81.95 62.00 81.80
  Q 61.68 81.79 61.52 81.51
  Q 61.41 81.33 61.26 81.17
  Q 61.12 81.02 61.05 81.21
  Q 61.03 81.26 61.03 81.31
  Q 61.08 81.89 60.80 81.39
  Q 60.29 80.49 59.53 80.98"
/>
<path stroke="#e399c4" vector-effect="non-scaling-stroke" d="
  M 59.53 80.98
  Q 59.38 80.75 59.32 80.44"
/>
<path stroke="#bc2f82" vector-effect="non-scaling-stroke" d="
  M 59.32 80.44
  L 59.16 78.39"
/>
<path stroke="#e399c4" vector-effect="non-scaling-stroke" d="
  M 59.16 78.39
  Q 59.86 75.55 59.48 72.95
  Q 59.31 71.74 58.09 71.75
  L 54.09 71.76
  A 1.17 1.17 0.0 0 0 52.93 72.92
  L 52.89 77.86"
/>
<path stroke="#bc2f82" vector-effect="non-scaling-stroke" d="
  M 52.89 77.86
  L 51.82 77.39
  Q 51.67 77.32 51.56 77.45
  Q 51.47 77.56 51.24 77.54"
/>
<path stroke="#e399c4" vector-effect="non-scaling-stroke" d="
  M 51.24 77.54
  L 51.16 73.10
  A 1.36 1.36 0.0 0 0 49.80 71.76
  L 45.93 71.76
  A 1.39 1.39 0.0 0 0 44.55 72.99
  Q 44.21 76.15 44.89 78.45"
/>
<path stroke="#bc2f82" vector-effect="non-scaling-stroke" d="
  M 44.89 78.45
  Q 44.22 78.76 44.40 79.68
  A 0.56 0.55 75.4 0 1 44.03 80.32
  Q 43.19 80.60 42.77 81.46
  Q 42.63 81.73 42.63 82.03
  L 42.63 82.50
  Q 42.63 83.08 42.05 83.04
  Q 37.07 82.69 32.47 83.93"
/>
<path stroke="#d995bd" vector-effect="non-scaling-stroke" d="
  M 59.32 80.44
  Q 56.39 79.95 53.57 80.45
  A 0.82 0.81 85.3 0 0 52.91 81.24
  L 52.89 85.47
  Q 52.88 86.86 54.26 86.85
  L 58.46 86.84
  A 1.08 1.08 0.0 0 0 59.54 85.75
  L 59.53 80.98"
/>
<path stroke="#d995bd" vector-effect="non-scaling-stroke" d="
  M 51.24 77.54
  Q 51.16 78.23 50.40 78.32
  Q 47.84 78.62 44.89 78.45"
/>
<path stroke="#d995bd" vector-effect="non-scaling-stroke" d="
  M 59.16 78.39
  Q 54.96 79.01 52.89 77.86"
/>
<path stroke="#d995bd" vector-effect="non-scaling-stroke" d="
  M 51.2025 81.3983
  A 1.15 1.15 0.0 0 0 50.0485 80.2523
  L 45.6285 80.2677
  A 1.15 1.15 0.0 0 0 44.4826 81.4217
  L 44.4975 85.7017
  A 1.15 1.15 0.0 0 0 45.6515 86.8477
  L 50.0715 86.8323
  A 1.15 1.15 0.0 0 0 51.2174 85.6783
  L 51.2025 81.3983"
/>
</g>
<path fill="#f4c828" d="
  M 65.49 13.97
  Q 56.92 11.75 48.49 9.15
  Q 46.66 8.58 44.00 8.63
  Q 46.55 5.92 48.63 3.65
  Q 50.69 1.41 53.00 2.19
  Q 54.15 2.58 56.22 4.66
  Q 60.87 9.31 65.49 13.97
  Z"
/>
<path fill="#f3ae27" d="
  M 44.00 8.63
  Q 46.66 8.58 48.49 9.15
  Q 56.92 11.75 65.49 13.97
  Q 69.30 17.74 73.04 21.58
  C 77.18 25.82 72.05 28.80 69.38 31.58
  Q 69.19 31.01 69.69 30.68
  A 0.65 0.62 -12.1 0 0 69.97 30.27
  Q 70.08 29.77 69.70 29.44
  Q 68.56 28.42 68.27 28.35
  Q 64.20 27.46 59.67 26.19
  Q 59.40 25.01 59.89 23.26
  Q 60.06 22.66 60.66 22.86
  L 62.43 23.48
  A 0.95 0.95 0.0 0 0 63.67 22.76
  Q 63.91 21.54 63.56 20.60
  A 0.85 0.85 0.0 0 0 62.45 20.10
  Q 61.45 20.50 60.42 20.50
  Q 59.83 20.50 59.67 19.94
  Q 59.38 18.91 58.62 18.18
  Q 58.23 17.80 57.68 17.77
  Q 51.53 17.46 49.83 17.82
  Q 47.49 18.31 46.18 21.38
  L 36.25 18.23
  Q 35.77 18.08 35.33 18.34
  L 32.99 19.72
  L 44.00 8.63
  Z"
/>
<path fill="#ffffff" d="
  M 59.67 26.19
  L 60.12 29.24
  Q 60.25 30.11 59.62 29.49
  Q 57.10 26.94 57.49 23.34
  A 0.51 0.50 2.4 0 0 56.97 22.78
  L 55.41 22.81
  Q 54.46 22.83 54.31 23.77
  Q 54.16 24.69 55.07 24.91
  Q 55.77 25.09 55.75 25.81
  L 55.68 28.24
  Q 55.67 28.76 55.99 29.17
  Q 59.92 34.31 61.26 40.34
  Q 56.85 46.43 49.72 44.58
  Q 46.96 43.87 42.89 39.74
  Q 44.29 34.23 47.61 29.88
  C 49.10 27.94 47.72 27.01 48.42 25.47
  Q 48.64 24.98 49.13 24.80
  Q 49.71 24.60 49.74 24.00
  Q 49.77 23.56 49.51 23.24
  Q 49.12 22.75 48.44 22.78
  Q 47.53 22.82 46.68 22.78
  A 0.64 0.63 84.6 0 1 46.09 22.29
  Q 45.99 21.88 46.18 21.38
  Q 47.49 18.31 49.83 17.82
  Q 51.53 17.46 57.68 17.77
  Q 58.23 17.80 58.62 18.18
  Q 59.38 18.91 59.67 19.94
  Q 59.83 20.50 60.42 20.50
  Q 61.45 20.50 62.45 20.10
  A 0.85 0.85 0.0 0 1 63.56 20.60
  Q 63.91 21.54 63.67 22.76
  A 0.95 0.95 0.0 0 1 62.43 23.48
  L 60.66 22.86
  Q 60.06 22.66 59.89 23.26
  Q 59.40 25.01 59.67 26.19
  Z"
/>
<path fill="#f28726" d="
  M 46.18 21.38
  Q 45.99 21.88 46.09 22.29
  A 0.64 0.63 84.6 0 0 46.68 22.78
  Q 47.53 22.82 48.44 22.78
  Q 49.12 22.75 49.51 23.24
  Q 49.77 23.56 49.74 24.00
  Q 49.71 24.60 49.13 24.80
  Q 48.64 24.98 48.42 25.47
  C 47.72 27.01 49.10 27.94 47.61 29.88
  Q 44.29 34.23 42.89 39.74
  Q 36.33 33.35 29.86 26.64
  Q 28.38 25.10 30.07 22.57
  Q 30.65 21.70 32.99 19.72
  L 35.33 18.34
  Q 35.77 18.08 36.25 18.23
  L 46.18 21.38
  Z"
/>
<path fill="#f28726" d="
  M 59.67 26.19
  Q 64.20 27.46 68.27 28.35
  Q 68.56 28.42 69.70 29.44
  Q 70.08 29.77 69.97 30.27
  A 0.65 0.62 -12.1 0 1 69.69 30.68
  Q 69.19 31.01 69.38 31.58
  L 61.26 40.34
  Q 59.92 34.31 55.99 29.17
  Q 55.67 28.76 55.68 28.24
  L 55.75 25.81
  Q 55.77 25.09 55.07 24.91
  Q 54.16 24.69 54.31 23.77
  Q 54.46 22.83 55.41 22.81
  L 56.97 22.78
  A 0.51 0.50 2.4 0 1 57.49 23.34
  Q 57.10 26.94 59.62 29.49
  Q 60.25 30.11 60.12 29.24
  L 59.67 26.19
  Z"
/>
<path fill="#84bb4b" d="
  M 43.26 46.39
  L 38.85 47.28
  A 1.56 1.55 -40.9 0 1 37.97 47.22
  Q 36.99 46.87 36.18 47.46
  Q 35.78 47.75 35.28 47.83
  Q 32.58 48.24 30.04 49.60
  L 17.13 42.12
  Q 16.73 41.88 16.53 42.31
  L 15.54 44.50
  Q 15.32 45.00 15.80 45.28
  L 32.04 54.67
  Q 32.03 55.17 31.89 55.54
  L 15.02 45.79
  A 0.58 0.57 34.1 0 0 14.27 45.93
  L 14.10 46.15
  Q 13.39 47.08 14.40 47.67
  L 20.35 51.15
  Q 20.79 51.41 20.99 51.89
  Q 23.13 57.23 19.41 59.75
  Q 17.99 60.71 17.05 62.13
  Q 15.49 64.49 15.62 66.65
  L 3.11 54.49
  A 3.45 3.45 0.0 0 1 3.07 49.57
  L 22.29 30.30
  A 3.51 3.51 0.0 0 1 27.27 30.31
  L 43.26 46.39
  Z"
/>
<path fill="#0ba3de" d="
  M 88.00 36.98
  L 84.66 42.35
  A 2.19 2.18 22.2 0 1 82.31 43.33
  C 74.70 41.56 75.17 52.37 67.68 50.61
  Q 64.56 49.87 67.25 51.61
  Q 69.12 52.82 71.55 52.88
  Q 71.62 52.88 71.63 52.95
  Q 71.65 53.00 71.63 53.04
  Q 71.60 53.11 71.53 53.12
  Q 69.74 53.32 67.97 52.93
  Q 66.41 52.59 67.53 53.73
  C 69.82 56.05 72.87 55.81 75.84 54.97
  Q 76.99 54.64 75.98 55.29
  Q 73.86 56.64 71.28 56.38
  Q 70.70 56.32 70.91 56.86
  Q 71.08 57.29 71.67 57.75
  L 67.75 56.99
  Q 67.20 56.88 66.96 57.39
  Q 66.84 57.66 66.58 57.76
  Q 65.98 57.99 65.31 57.87
  Q 64.48 57.72 63.94 58.30
  Q 63.58 58.70 63.09 58.49
  Q 62.16 58.08 61.38 58.22
  C 59.04 56.21 54.44 52.67 57.81 49.30
  Q 67.82 39.27 76.92 30.18
  A 3.27 3.27 0.0 0 1 81.60 30.24
  L 88.00 36.98
  Z"
/>
<path fill="#ffffff" d="
  M 88.00 36.98
  L 89.27 38.76
  Q 89.59 39.56 89.26 40.23
  Q 88.37 42.03 87.45 43.72
  A 2.32 2.31 -53.9 0 0 87.88 46.50
  C 90.81 49.30 90.14 54.24 88.29 57.41
  C 85.70 61.86 81.35 62.87 76.80 60.75
  Q 75.22 60.01 76.96 59.91
  Q 79.74 59.73 81.94 57.99
  Q 82.06 57.89 81.97 57.76
  L 81.97 57.75
  Q 81.88 57.62 81.75 57.70
  Q 76.64 60.56 71.67 57.75
  Q 71.08 57.29 70.91 56.86
  Q 70.70 56.32 71.28 56.38
  Q 73.86 56.64 75.98 55.29
  Q 76.99 54.64 75.84 54.97
  C 72.87 55.81 69.82 56.05 67.53 53.73
  Q 66.41 52.59 67.97 52.93
  Q 69.74 53.32 71.53 53.12
  Q 71.60 53.11 71.63 53.04
  Q 71.65 53.00 71.63 52.95
  Q 71.62 52.88 71.55 52.88
  Q 69.12 52.82 67.25 51.61
  Q 64.56 49.87 67.68 50.61
  C 75.17 52.37 74.70 41.56 82.31 43.33
  A 2.19 2.18 22.2 0 0 84.66 42.35
  L 88.00 36.98
  Z"
/>
<path fill="#1690d0" d="
  M 89.27 38.76
  Q 90.18 38.81 91.05 39.66
  Q 96.15 44.64 100.99 49.63
  A 3.50 3.50 0.0 0 1 100.96 54.54
  L 81.89 73.69
  A 3.63 3.63 0.0 0 1 76.75 73.69
  L 61.38 58.22
  Q 62.16 58.08 63.09 58.49
  Q 63.58 58.70 63.94 58.30
  Q 64.48 57.72 65.31 57.87
  Q 65.98 57.99 66.58 57.76
  Q 66.84 57.66 66.96 57.39
  Q 67.20 56.88 67.75 56.99
  L 71.67 57.75
  Q 76.64 60.56 81.75 57.70
  Q 81.88 57.62 81.97 57.75
  L 81.97 57.76
  Q 82.06 57.89 81.94 57.99
  Q 79.74 59.73 76.96 59.91
  Q 75.22 60.01 76.80 60.75
  C 81.35 62.87 85.70 61.86 88.29 57.41
  C 90.14 54.24 90.81 49.30 87.88 46.50
  A 2.32 2.31 -53.9 0 1 87.45 43.72
  Q 88.37 42.03 89.26 40.23
  Q 89.59 39.56 89.27 38.76
  Z"
/>
<path fill="#ffffff" d="
  M 30.04 49.60
  L 38.34 54.40
  Q 38.94 54.75 38.49 55.28
  L 37.12 56.89
  Q 36.69 57.39 36.13 57.06
  L 32.04 54.67
  L 15.80 45.28
  Q 15.32 45.00 15.54 44.50
  L 16.53 42.31
  Q 16.73 41.88 17.13 42.12
  L 30.04 49.60
  Z"
/>
<path fill="#ffffff" d="
  M 31.89 55.54
  L 36.25 58.03
  A 0.58 0.58 0.0 0 1 36.47 58.81
  L 36.28 59.15
  A 1.04 1.03 29.5 0 1 34.85 59.54
  L 28.72 55.95
  Q 28.22 55.66 27.70 55.90
  C 26.03 56.63 24.18 56.67 23.05 58.28
  Q 21.78 60.10 22.05 61.94
  Q 22.13 62.50 21.85 62.99
  Q 20.43 65.57 18.58 68.19
  Q 18.18 68.76 16.97 67.71
  L 15.62 66.65
  Q 15.49 64.49 17.05 62.13
  Q 17.99 60.71 19.41 59.75
  Q 23.13 57.23 20.99 51.89
  Q 20.79 51.41 20.35 51.15
  L 14.40 47.67
  Q 13.39 47.08 14.10 46.15
  L 14.27 45.93
  A 0.58 0.57 34.1 0 1 15.02 45.79
  L 31.89 55.54
  Z"
/>
<path fill="#6ead48" d="
  M 43.26 46.39
  Q 46.26 49.10 46.82 49.98
  Q 48.45 52.53 46.22 54.77
  Q 36.92 64.12 27.54 73.50
  C 23.79 77.26 19.41 71.25 16.97 67.71
  Q 18.18 68.76 18.58 68.19
  Q 20.43 65.57 21.85 62.99
  Q 22.13 62.50 22.05 61.94
  Q 21.78 60.10 23.05 58.28
  C 24.18 56.67 26.03 56.63 27.70 55.90
  Q 28.22 55.66 28.72 55.95
  L 34.85 59.54
  A 1.04 1.03 29.5 0 0 36.28 59.15
  L 36.47 58.81
  A 0.58 0.58 0.0 0 0 36.25 58.03
  L 31.89 55.54
  Q 32.03 55.17 32.04 54.67
  L 36.13 57.06
  Q 36.69 57.39 37.12 56.89
  L 38.49 55.28
  Q 38.94 54.75 38.34 54.40
  L 30.04 49.60
  Q 32.58 48.24 35.28 47.83
  Q 35.78 47.75 36.18 47.46
  Q 36.99 46.87 37.97 47.22
  A 1.56 1.55 -40.9 0 0 38.85 47.28
  L 43.26 46.39
  Z"
/>
<path fill="#c63289" d="
  M 74.02 81.51
  Q 73.15 81.27 72.69 81.91
  Q 72.28 82.47 72.11 81.85
  Q 72.09 81.78 72.05 81.69
  Q 71.97 81.45 71.81 81.64
  Q 71.73 81.74 71.69 81.86
  Q 71.67 81.92 71.61 81.92
  Q 66.39 81.95 62.00 81.80
  Q 61.68 81.79 61.52 81.51
  Q 61.41 81.33 61.26 81.17
  Q 61.12 81.02 61.05 81.21
  Q 61.03 81.26 61.03 81.31
  Q 61.08 81.89 60.80 81.39
  Q 60.29 80.49 59.53 80.98
  Q 59.38 80.75 59.32 80.44
  L 59.16 78.39
  Q 59.86 75.55 59.48 72.95
  Q 59.31 71.74 58.09 71.75
  L 54.09 71.76
  A 1.17 1.17 0.0 0 0 52.93 72.92
  L 52.89 77.86
  L 51.82 77.39
  Q 51.67 77.32 51.56 77.45
  Q 51.47 77.56 51.24 77.54
  L 51.16 73.10
  A 1.36 1.36 0.0 0 0 49.80 71.76
  L 45.93 71.76
  A 1.39 1.39 0.0 0 0 44.55 72.99
  Q 44.21 76.15 44.89 78.45
  Q 44.22 78.76 44.40 79.68
  A 0.56 0.55 75.4 0 1 44.03 80.32
  Q 43.19 80.60 42.77 81.46
  Q 42.63 81.73 42.63 82.03
  L 42.63 82.50
  Q 42.63 83.08 42.05 83.04
  Q 37.07 82.69 32.47 83.93
  Q 30.47 82.33 29.92 81.30
  Q 28.50 78.68 30.60 76.56
  Q 39.90 67.21 49.40 57.72
  A 3.70 3.70 0.0 0 1 54.63 57.73
  Q 64.01 67.11 73.68 76.81
  Q 75.68 78.81 74.02 81.51
  Z"
/>
<path fill="#ffffff" d="
  M 51.24 77.54
  Q 51.16 78.23 50.40 78.32
  Q 47.84 78.62 44.89 78.45
  Q 44.21 76.15 44.55 72.99
  A 1.39 1.39 0.0 0 1 45.93 71.76
  L 49.80 71.76
  A 1.36 1.36 0.0 0 1 51.16 73.10
  L 51.24 77.54
  Z"
/>
<path fill="#ffffff" d="
  M 59.16 78.39
  Q 54.96 79.01 52.89 77.86
  L 52.93 72.92
  A 1.17 1.17 0.0 0 1 54.09 71.76
  L 58.09 71.75
  Q 59.31 71.74 59.48 72.95
  Q 59.86 75.55 59.16 78.39
  Z"
/>
<path fill="#b22b7b" d="
  M 52.89 77.86
  Q 54.96 79.01 59.16 78.39
  L 59.32 80.44
  Q 56.39 79.95 53.57 80.45
  A 0.82 0.81 85.3 0 0 52.91 81.24
  L 52.89 85.47
  Q 52.88 86.86 54.26 86.85
  L 58.46 86.84
  A 1.08 1.08 0.0 0 0 59.54 85.75
  L 59.53 80.98
  Q 60.29 80.49 60.80 81.39
  Q 61.08 81.89 61.03 81.31
  Q 61.03 81.26 61.05 81.21
  Q 61.12 81.02 61.26 81.17
  Q 61.41 81.33 61.52 81.51
  Q 61.68 81.79 62.00 81.80
  Q 66.39 81.95 71.61 81.92
  Q 71.67 81.92 71.69 81.86
  Q 71.73 81.74 71.81 81.64
  Q 71.97 81.45 72.05 81.69
  Q 72.09 81.78 72.11 81.85
  Q 72.28 82.47 72.69 81.91
  Q 73.15 81.27 74.02 81.51
  L 54.46 101.09
  A 3.47 3.46 -44.9 0 1 49.55 101.09
  L 32.47 83.93
  Q 37.07 82.69 42.05 83.04
  Q 42.63 83.08 42.63 82.50
  L 42.63 82.03
  Q 42.63 81.73 42.77 81.46
  Q 43.19 80.60 44.03 80.32
  A 0.56 0.55 75.4 0 0 44.40 79.68
  Q 44.22 78.76 44.89 78.45
  Q 47.84 78.62 50.40 78.32
  Q 51.16 78.23 51.24 77.54
  Q 51.47 77.56 51.56 77.45
  Q 51.67 77.32 51.82 77.39
  L 52.89 77.86
  Z
  M 51.2025 81.3983
  A 1.15 1.15 0.0 0 0 50.0485 80.2523
  L 45.6285 80.2677
  A 1.15 1.15 0.0 0 0 44.4826 81.4217
  L 44.4975 85.7017
  A 1.15 1.15 0.0 0 0 45.6515 86.8477
  L 50.0715 86.8323
  A 1.15 1.15 0.0 0 0 51.2174 85.6783
  L 51.2025 81.3983
  Z"
/>
<rect fill="#ffffff" x="-3.36" y="-3.29" transform="translate(47.85,83.55) rotate(-0.2)" width="6.72" height="6.58" rx="1.15"/>
<path fill="#ffffff" d="
  M 59.32 80.44
  Q 59.38 80.75 59.53 80.98
  L 59.54 85.75
  A 1.08 1.08 0.0 0 1 58.46 86.84
  L 54.26 86.85
  Q 52.88 86.86 52.89 85.47
  L 52.91 81.24
  A 0.82 0.81 85.3 0 1 53.57 80.45
  Q 56.39 79.95 59.32 80.44
  Z"
/>
</svg>
